# xmcd
#
# Track frame offsets: 
#        150
#        14914
#        28165
#        42114
#        60887
#        75879
#        87982
#        97910
#        115965
#        129201
#        142914
#        165873
#        175210
#        190602
#        206602
#        213055
#
# Disc length: 3038 seconds
#
# Revision: 2
# Processed by: cddbd v1.5.1PL2 Copyright (c) Steve Scherf et al.
# Submitted via: ExactAudioCopy v0.95b3
#
DISCID=bc0bdc10
DTITLE=Various Artist - Forever Gold - Gershwin
DYEAR=2003
DGENRE=Jazz
TTITLE0=Peggy Lee and Benny Goodman - How Long Has This Been Going On
TTITLE1=Duke Ellington - Summertime
TTITLE2=Mel Torme - For You For Me Forevermore
TTITLE3=Nina Simone - I Loves You Porgy
TTITLE4=Zoot Sims - That Man I Love
TTITLE5=Nat King Cole and Count Basie - Oh Lady Be Good
TTITLE6=Judy Garland - Swanee
TTITLE7=Sarah Vaughan - Someone To Watch Over Me
TTITLE8=Stan Getz - `S Wonderful
TTITLE9=Billie Holiday - They Can't Take That Away From Me
TTITLE10=Teddy Wilson - Medley
TTITLE11=Carmen McRae - Nice Work If You Can Get It
TTITLE12=Charlie Parker - Embracable You
TTITLE13=Ella Fitzgerald - I`ve Got Rythum
TTITLE14=Dinah Washington - A Foggy Day
TTITLE15=Frank Sinatra - I`ve Got A Crush On You
EXTD=YEAR: 2001
EXTT0=
EXTT1=
EXTT2=
EXTT3=
EXTT4=
EXTT5=
EXTT6=
EXTT7=
EXTT8=
EXTT9=
EXTT10=
EXTT11=
EXTT12=
EXTT13=
EXTT14=
EXTT15=
PLAYORDER=
